<svg width="22" height="18" viewBox="0 0 22 18" fill="none" xmlns="http://www.w3.org/2000/svg">
<path d="M20.5556 15.2222C20.5556 16.2041 19.7596 17 18.7778 17H2.77778C1.79594 17 1 16.2041 1 15.2222V5.44444C1 4.4626 1.79594 3.66667 2.77778 3.66667H6.33333L8.11111 1H13.4444L15.2222 3.66667H18.7778C19.7596 3.66667 20.5556 4.4626 20.5556 5.44444V15.2222Z" stroke="#0042E0" stroke-linecap="round" stroke-linejoin="round"/>
<path d="M14.7893 9.79829C14.7893 12.0136 12.9935 13.8095 10.7781 13.8095C8.56283 13.8095 6.76697 12.0136 6.76697 9.79829C6.76697 7.58297 8.56283 5.78711 10.7781 5.78711C12.9935 5.78711 14.7893 7.58297 14.7893 9.79829Z" stroke="#0042E0" stroke-linecap="round" stroke-linejoin="round"/>
</svg>
