<svg width="24" height="23" viewBox="0 0 24 23" fill="none" xmlns="http://www.w3.org/2000/svg">
<path d="M23.372 9.67185C23.7689 9.32842 23.5562 8.67602 23.0333 8.63086L15.4944 7.98321L23.372 9.67185ZM23.372 9.67185L17.6537 14.6261L23.372 9.67185ZM9.43162 8.37127L12.0024 2.28766L14.5733 8.3724L14.808 8.92792L15.4088 8.97954L21.9912 9.54502L16.9988 13.8703L16.5431 14.2652L16.6796 14.8526L18.1756 21.2866L12.5195 17.8755L12.0031 17.5641L11.4866 17.8755L5.83052 21.2866L7.32647 14.8526L7.46304 14.2652L7.00727 13.8703L2.01367 9.54383L8.59608 8.97835L9.1969 8.92674L9.43162 8.37127ZM22.7177 8.91564L22.7172 8.91606L22.7177 8.91564Z" fill="#004CFF" stroke="#004CFF" stroke-width="2"/>
</svg>
