<svg width="22" height="20" viewBox="0 0 22 20" fill="none" xmlns="http://www.w3.org/2000/svg">
<path d="M14.58 9.99997C14.58 11.98 12.98 13.58 11 13.58C9.02 13.58 7.42 11.98 7.42 9.99997C7.42 8.01997 9.02 6.41997 11 6.41997C12.98 6.41997 14.58 8.01997 14.58 9.99997Z" stroke="#292D32" stroke-width="1.5" stroke-linecap="round" stroke-linejoin="round"/>
<path d="M11 18.27C14.53 18.27 17.82 16.19 20.11 12.59C21.01 11.18 21.01 8.80997 20.11 7.39997C17.82 3.79997 14.53 1.71997 11 1.71997C7.47 1.71997 4.18 3.79997 1.89 7.39997C0.989996 8.80997 0.989996 11.18 1.89 12.59C4.18 16.19 7.47 18.27 11 18.27Z" stroke="#292D32" stroke-width="1.5" stroke-linecap="round" stroke-linejoin="round"/>
</svg>
